<?xml version="1.0" encoding="UTF-8"?>
<!DOCTYPE svg PUBLIC "-//W3C//DTD SVG 1.1//EN" "http://www.w3.org/Graphics/SVG/1.1/DTD/svg11.dtd">
<svg xmlns="http://www.w3.org/2000/svg" version="1.1" width="183px" height="39px" style="shape-rendering:geometricPrecision; text-rendering:geometricPrecision; image-rendering:optimizeQuality; fill-rule:evenodd; clip-rule:evenodd" xmlns:xlink="http://www.w3.org/1999/xlink">
<g><path style="opacity:0.933" fill="#5c1f1c" d="M 23.5,7.5 C 22.0047,7.58517 21.0047,6.91851 20.5,5.5C 17.2317,4.51298 13.8984,4.17964 10.5,4.5C 10.767,6.96527 11.4336,9.2986 12.5,11.5C 10.9826,11.4894 9.81595,10.8228 9,9.5C 6.08168,4.66991 7.41501,2.00324 13,1.5C 17.9453,1.23717 21.4453,3.23717 23.5,7.5 Z"/></g>
<g><path style="opacity:0.91" fill="#5d2422" d="M 32.5,2.5 C 35.1873,2.33591 37.854,2.50258 40.5,3C 41.3081,3.30762 41.9747,3.80762 42.5,4.5C 39.5335,4.87167 37.2002,6.20501 35.5,8.5C 33.766,6.76575 31.766,5.43242 29.5,4.5C 30.6016,3.82434 31.6016,3.15767 32.5,2.5 Z"/></g>
<g><path style="opacity:0.004" fill="#a9a9a9" d="M 44.5,6.5 C 43.475,6.10343 43.3083,5.43677 44,4.5C 44.4643,5.09442 44.631,5.76109 44.5,6.5 Z"/></g>
<g><path style="opacity:1" fill="#efefef" d="M 45.5,6.5 C 50.8333,6.5 56.1667,6.5 61.5,6.5C 61.5,7.83333 61.5,9.16667 61.5,10.5C 57.2984,10.1832 53.2984,10.5166 49.5,11.5C 49.5,13.1667 49.5,14.8333 49.5,16.5C 52.6248,17.4794 55.9581,17.8128 59.5,17.5C 59.5,18.8333 59.5,20.1667 59.5,21.5C 56.4355,22.8184 53.2688,22.8184 50,21.5C 49.5045,23.4727 49.3379,25.4727 49.5,27.5C 53.2984,28.4834 57.2984,28.8168 61.5,28.5C 61.5,29.5 61.5,30.5 61.5,31.5C 56.1667,31.5 50.8333,31.5 45.5,31.5C 45.5,23.1667 45.5,14.8333 45.5,6.5 Z"/></g>
<g><path style="opacity:1" fill="#dfdfdf" d="M 62.5,6.5 C 62.7352,5.90326 63.2352,5.56993 64,5.5C 66.1351,6.12709 68.3018,6.62709 70.5,7C 72.31,9.64429 74.31,12.1443 76.5,14.5C 78.69,12.1443 80.69,9.64429 82.5,7C 84.1341,6.50649 85.8008,6.33982 87.5,6.5C 87.5,7.16667 87.5,7.83333 87.5,8.5C 85.0493,12.1235 82.3826,15.6235 79.5,19C 82.3063,23.3062 85.3063,27.4729 88.5,31.5C 86.5787,32.641 84.5787,32.8077 82.5,32C 80.6596,29.3313 78.6596,26.8313 76.5,24.5C 74.3404,26.8313 72.3404,29.3313 70.5,32C 69.5,32.1667 68.5,32.3333 67.5,32.5C 65.9704,32.3601 64.9704,31.6935 64.5,30.5C 65.1667,30.5 65.5,30.1667 65.5,29.5C 68.6866,26.4693 71.3532,22.9693 73.5,19C 70.9688,15.6425 68.3021,12.4758 65.5,9.5C 65.1436,7.81018 64.1436,6.81018 62.5,6.5 Z"/></g>
<g><path style="opacity:0.114" fill="#464646" d="M 87.5,8.5 C 87.5,7.83333 87.5,7.16667 87.5,6.5C 87.4346,6.06178 87.6012,5.72845 88,5.5C 88.5,6.5 89,7.5 89.5,8.5C 89.0302,9.46295 88.3635,9.46295 87.5,8.5 Z"/></g>
<g><path style="opacity:0.999" fill="#f4f4f4" d="M 106.5,10.5 C 104.5,10.5 102.5,10.5 100.5,10.5C 100.5,17.5 100.5,24.5 100.5,31.5C 99.1667,31.5 97.8333,31.5 96.5,31.5C 96.5,24.5 96.5,17.5 96.5,10.5C 94.5,10.5 92.5,10.5 90.5,10.5C 90.5,9.16667 90.5,7.83333 90.5,6.5C 95.8333,6.5 101.167,6.5 106.5,6.5C 106.5,7.83333 106.5,9.16667 106.5,10.5 Z"/></g>
<g><path style="opacity:0.999" fill="#eeeeee" d="M 113.5,11.5 C 114.833,13.1667 114.833,14.8333 113.5,16.5C 116.625,17.4794 119.958,17.8128 123.5,17.5C 123.5,18.8333 123.5,20.1667 123.5,21.5C 119.958,21.1872 116.625,21.5206 113.5,22.5C 114.775,25.6038 114.775,28.6038 113.5,31.5C 112.167,31.5 110.833,31.5 109.5,31.5C 109.5,23.5 109.5,15.5 109.5,7.5C 114.833,7.5 120.167,7.5 125.5,7.5C 125.5,8.5 125.5,9.5 125.5,10.5C 121.298,10.1832 117.298,10.5166 113.5,11.5 Z"/></g>
<g><path style="opacity:0.676" fill="#9e9e9e" d="M 129.5,6.5 C 129.5,14.8333 129.5,23.1667 129.5,31.5C 133.833,31.5 138.167,31.5 142.5,31.5C 142.5,30.1667 142.5,28.8333 142.5,27.5C 143.451,28.9187 143.784,30.5853 143.5,32.5C 138.5,32.5 133.5,32.5 128.5,32.5C 128.174,23.6506 128.507,14.9839 129.5,6.5 Z"/></g>
<g><path style="opacity:1" fill="#f5f5f5" d="M 129.5,6.5 C 130.833,6.5 132.167,6.5 133.5,6.5C 133.176,13.3543 133.509,20.021 134.5,26.5C 136.948,27.4731 139.615,27.8064 142.5,27.5C 142.5,28.8333 142.5,30.1667 142.5,31.5C 138.167,31.5 133.833,31.5 129.5,31.5C 129.5,23.1667 129.5,14.8333 129.5,6.5 Z"/></g>
<g><path style="opacity:0.999" fill="#dedede" d="M 152.5,31.5 C 155.966,27.9261 158.966,23.9261 161.5,19.5C 159.057,15.5888 156.39,11.9221 153.5,8.5C 153.5,7.83333 153.167,7.5 152.5,7.5C 152.369,6.76109 152.536,6.09442 153,5.5C 155.147,6.11252 157.314,6.77919 159.5,7.5C 160.851,10.1963 162.684,12.5296 165,14.5C 166.833,12 168.667,9.5 170.5,7C 172.579,6.19234 174.579,6.35901 176.5,7.5C 173.624,11.2059 170.957,15.0392 168.5,19C 170.559,23.5586 173.226,27.7253 176.5,31.5C 174.579,32.641 172.579,32.8077 170.5,32C 168.542,29.2518 166.709,26.4185 165,23.5C 162.971,26.0292 161.138,28.6959 159.5,31.5C 157.027,32.7969 154.693,32.7969 152.5,31.5 Z"/></g>
<g><path style="opacity:0.102" fill="#373737" d="M 152.5,7.5 C 153.167,7.5 153.5,7.83333 153.5,8.5C 153.217,9.28913 152.717,9.9558 152,10.5C 151.26,9.25057 151.427,8.25057 152.5,7.5 Z"/></g>
<g><path style="opacity:0.094" fill="#494a49" d="M 65.5,9.5 C 64.8333,10.1667 64.8333,10.1667 65.5,9.5 Z"/></g>
<g><path style="opacity:0.682" fill="#ababab" d="M 61.5,6.5 C 61.8333,6.5 62.1667,6.5 62.5,6.5C 62.5,8.16667 62.5,9.83333 62.5,11.5C 58.1667,11.5 53.8333,11.5 49.5,11.5C 53.2984,10.5166 57.2984,10.1832 61.5,10.5C 61.5,9.16667 61.5,7.83333 61.5,6.5 Z"/></g>
<g><path style="opacity:0.051" fill="#4d4e4d" d="M 126.5,11.5 C 127.833,12.1667 127.833,12.1667 126.5,11.5 Z"/></g>
<g><path style="opacity:0.008" fill="#b7b7b7" d="M 50.5,13.5 C 50.8966,12.475 51.5632,12.3083 52.5,13C 51.9056,13.4643 51.2389,13.631 50.5,13.5 Z"/></g>
<g><path style="opacity:0.69" fill="#aeaeae" d="M 126.5,11.5 C 122.167,11.5 117.833,11.5 113.5,11.5C 117.298,10.5166 121.298,10.1832 125.5,10.5C 125.5,9.5 125.5,8.5 125.5,7.5C 120.167,7.5 114.833,7.5 109.5,7.5C 109.5,15.5 109.5,23.5 109.5,31.5C 110.833,31.5 112.167,31.5 113.5,31.5C 112.081,32.4511 110.415,32.7845 108.5,32.5C 108.5,23.8333 108.5,15.1667 108.5,6.5C 114.5,6.5 120.5,6.5 126.5,6.5C 126.5,8.16667 126.5,9.83333 126.5,11.5 Z"/></g>
<g><path style="opacity:0.447" fill="#7c7c7c" d="M 49.5,16.5 C 53.1667,16.5 56.8333,16.5 60.5,16.5C 60.7845,18.4147 60.4511,20.0813 59.5,21.5C 59.5,20.1667 59.5,18.8333 59.5,17.5C 55.9581,17.8128 52.6248,17.4794 49.5,16.5 Z"/></g>
<g><path style="opacity:0.478" fill="#727272" d="M 113.5,16.5 C 117.167,16.5 120.833,16.5 124.5,16.5C 124.5,18.5 124.5,20.5 124.5,22.5C 120.833,22.5 117.167,22.5 113.5,22.5C 116.625,21.5206 119.958,21.1872 123.5,21.5C 123.5,20.1667 123.5,18.8333 123.5,17.5C 119.958,17.8128 116.625,17.4794 113.5,16.5 Z"/></g>
<g><path style="opacity:0.114" fill="#404040" d="M 125.5,17.5 C 126.598,18.6009 126.765,19.9343 126,21.5C 125.51,20.2068 125.343,18.8734 125.5,17.5 Z"/></g>
<g><path style="opacity:0.35" fill="#6c6c6c" d="M 90.5,10.5 C 92.5,10.5 94.5,10.5 96.5,10.5C 96.5,17.5 96.5,24.5 96.5,31.5C 97.8333,31.5 99.1667,31.5 100.5,31.5C 100.5,24.5 100.5,17.5 100.5,10.5C 102.5,10.5 104.5,10.5 106.5,10.5C 107.525,10.8966 107.692,11.5632 107,12.5C 105.301,11.5939 103.467,11.2606 101.5,11.5C 101.5,18.5 101.5,25.5 101.5,32.5C 99.5,32.5 97.5,32.5 95.5,32.5C 95.5,25.5 95.5,18.5 95.5,11.5C 93.5853,11.7845 91.9187,11.4511 90.5,10.5 Z"/></g>
<g><path style="opacity:1" fill="#952420" d="M 23.5,7.5 C 27.5458,12.2139 31.2125,17.2139 34.5,22.5C 35.4922,25.7786 35.6588,29.1119 35,32.5C 33.3005,33.4061 31.4672,33.7394 29.5,33.5C 23.8446,26.2054 18.1779,18.8721 12.5,11.5C 11.4336,9.2986 10.767,6.96527 10.5,4.5C 13.8984,4.17964 17.2317,4.51298 20.5,5.5C 21.0047,6.91851 22.0047,7.58517 23.5,7.5 Z"/></g>
<g><path style="opacity:0.004" fill="#fefffe" d="M 50.5,23.5 C 51.8333,24.1667 51.8333,24.1667 50.5,23.5 Z"/></g>
<g><path style="opacity:0.783" fill="#c3c3c3" d="M 146.5,6.5 C 146.5,14.8333 146.5,23.1667 146.5,31.5C 147.5,31.5 148.5,31.5 149.5,31.5C 149.5,23.1667 149.5,14.8333 149.5,6.5C 150.493,14.9839 150.826,23.6506 150.5,32.5C 148.833,32.5 147.167,32.5 145.5,32.5C 145.174,23.6506 145.507,14.9839 146.5,6.5 Z"/></g>
<g><path style="opacity:1" fill="#fcfcfc" d="M 146.5,6.5 C 147.5,6.5 148.5,6.5 149.5,6.5C 149.5,14.8333 149.5,23.1667 149.5,31.5C 148.5,31.5 147.5,31.5 146.5,31.5C 146.5,23.1667 146.5,14.8333 146.5,6.5 Z"/></g>
<g><path style="opacity:0.024" fill="#545554" d="M 50.5,25.5 C 51.8333,26.1667 51.8333,26.1667 50.5,25.5 Z"/></g>
<g><path style="opacity:0.02" fill="#323332" d="M 134.5,25.5 C 135.833,26.1667 135.833,26.1667 134.5,25.5 Z"/></g>
<g><path style="opacity:0.684" fill="#601c19" d="M 34.5,22.5 C 35.1174,22.6107 35.6174,22.944 36,23.5C 36.4988,27.4862 36.6655,31.4862 36.5,35.5C 34.4727,35.6621 32.4727,35.4955 30.5,35C 29.944,34.6174 29.6107,34.1174 29.5,33.5C 31.4672,33.7394 33.3005,33.4061 35,32.5C 35.6588,29.1119 35.4922,25.7786 34.5,22.5 Z"/></g>
<g><path style="opacity:0.157" fill="#484848" d="M 65.5,29.5 C 64.8333,29.5 64.5,29.8333 64.5,30.5C 63.9569,30.44 63.6236,30.1067 63.5,29.5C 64.2565,28.2267 64.9232,28.2267 65.5,29.5 Z"/></g>
<g><path style="opacity:0.133" fill="#2e2e2e" d="M 152.5,31.5 C 151.427,30.7494 151.26,29.7494 152,28.5C 152.483,29.448 152.649,30.448 152.5,31.5 Z"/></g>
<g><path style="opacity:0.708" fill="#b2b1b1" d="M 44.5,6.5 C 44.8333,6.5 45.1667,6.5 45.5,6.5C 45.5,14.8333 45.5,23.1667 45.5,31.5C 50.8333,31.5 56.1667,31.5 61.5,31.5C 61.5,30.5 61.5,29.5 61.5,28.5C 57.2984,28.8168 53.2984,28.4834 49.5,27.5C 53.8333,27.5 58.1667,27.5 62.5,27.5C 62.5,29.1667 62.5,30.8333 62.5,32.5C 56.5,32.5 50.5,32.5 44.5,32.5C 44.5,23.8333 44.5,15.1667 44.5,6.5 Z"/></g>
<g><path style="opacity:0.369" fill="#5c2624" d="M 7.5,35.5 C 6.20895,35.2627 5.20895,35.596 4.5,36.5C 3.59603,35.791 3.26269,34.791 3.5,33.5C 6.42057,33.8541 8.7539,32.8541 10.5,30.5C 12.4034,32.5623 14.7367,33.8956 17.5,34.5C 17.3333,34.8333 17.1667,35.1667 17,35.5C 13.9049,36.3949 10.7383,36.3949 7.5,35.5 Z"/></g>
<g><path style="opacity:0.016" fill="#9b9b9b" d="M 7.5,35.5 C 6.77896,37.3818 5.77896,37.7152 4.5,36.5C 5.20895,35.596 6.20895,35.2627 7.5,35.5 Z"/></g>
</svg>
